<svg width="12" height="8" viewBox="0 0 12 8" fill="none" xmlns="http://www.w3.org/2000/svg">
<path d="M0.833496 0.833252H11.1668V7.16659H0.833496V0.833252Z" fill="#1E50A0"/>
<path d="M6.6665 2.80925V3.33325H8.36334L11.1665 1.61509V0.833252H9.89084L6.6665 2.80925Z" fill="white"/>
<path d="M11.1665 0.833252H10.5287L6.6665 3.20042V3.33325H7.24684L11.1665 0.930919V0.833252Z" fill="#D22F27"/>
<path d="M9.891 7.16675H11.1665V6.38475L8.3635 4.66675H6.6665V5.19058L9.891 7.16675Z" fill="white"/>
<path d="M11.1669 7.16675V6.77558L7.72606 4.66675H6.92822L11.0072 7.16675H11.1669Z" fill="#D22F27"/>
<path d="M5.3335 5.19075V4.66675H3.63666L0.833496 6.38491V7.16675H2.10916L5.3335 5.19075Z" fill="white"/>
<path d="M0.833496 7.16675H1.47133L5.3335 4.79958V4.66675H4.75316L0.833496 7.06908V7.16675Z" fill="#D22F27"/>
<path d="M2.109 0.833252H0.833496V1.61525L3.6365 3.33325H5.3335V2.80942L2.109 0.833252Z" fill="white"/>
<path d="M0.833496 0.833252V1.22442L4.2745 3.33325H5.07216L0.993163 0.833252H0.833496Z" fill="#D22F27"/>
<path d="M0.833496 3.16675H11.1668V4.83341H0.833496V3.16675Z" fill="white"/>
<path d="M5.1665 0.833252H6.83317V7.16659H5.1665V0.833252Z" fill="white"/>
<path d="M0.833496 3.5H11.1668V4.5H0.833496V3.5Z" fill="#D22F27"/>
<path d="M5.5 0.833252H6.5V7.16659H5.5V0.833252Z" fill="#D22F27"/>
</svg>
