<svg width="711" height="501" viewBox="0 0 711 501" fill="none" xmlns="http://www.w3.org/2000/svg">
<g clip-path="url(#clip0_362_21)">
<path d="M475.358 475.075H462.405L456.24 423.734H475.358V475.075Z" fill="#FB9A9A"/>
<path d="M482.195 498.138H472.906L471.248 489.126L467.001 498.138H442.364C441.183 498.138 440.033 497.75 439.082 497.031C438.131 496.312 437.428 495.299 437.077 494.141C436.725 492.982 436.743 491.738 437.128 490.591C437.514 489.444 438.245 488.453 439.217 487.764L458.892 473.801V464.689L479.586 465.959L482.195 498.138Z" fill="#2F2E41"/>
<path d="M552.313 458.277L541.918 466.22L507.159 428.8L522.5 417.077L552.313 458.277Z" fill="#FB9A9A"/>
<path d="M571.19 472.592L563.736 478.288L557.172 472.072L558.998 481.908L539.228 497.016C538.28 497.74 537.132 498.134 535.951 498.14C534.77 498.146 533.618 497.765 532.664 497.05C531.709 496.336 531.001 495.327 530.644 494.17C530.287 493.014 530.299 491.77 530.678 490.621L538.358 467.351L533.068 460.04L550.411 448.369L571.19 472.592Z" fill="#2F2E41"/>
<path d="M490.438 210.178C490.438 210.178 515.014 231.998 503.675 294.2L489.832 355.148L534.979 432.116L520.584 450.112L461.891 366.803L440.622 315.535L434.654 224.288L490.438 210.178Z" fill="#0A5FC5"/>
<path d="M452.345 330.145L450.867 353.671L455.391 453.922L476.678 450.112L480.746 378.735L452.345 330.145Z" fill="#0A5FC5"/>
<path d="M179.177 487.147L190.761 487.146L196.271 441.232L179.176 441.233L179.177 487.147Z" fill="#FFB6B6"/>
<path d="M176.223 483.26L179.483 483.26L192.212 477.941L199.035 483.259H199.036C202.891 483.26 206.589 484.834 209.315 487.635C212.042 490.437 213.573 494.237 213.574 498.199V498.684L176.223 498.686L176.223 483.26Z" fill="#2F2E41"/>
<path d="M224.066 479.646L235.365 482.267L250.582 438.729L233.906 434.859L224.066 479.646Z" fill="#FFB6B6"/>
<path d="M222.017 475.186L225.198 475.924L238.755 473.616L244.269 480.349L244.27 480.349C248.031 481.222 251.301 483.594 253.359 486.944C255.418 490.294 256.098 494.347 255.249 498.212L255.145 498.686L218.711 490.232L222.017 475.186Z" fill="#2F2E41"/>
<path d="M164.506 206.453C159.076 223.285 159.65 241.556 165.812 261.166L168.446 371.573C168.446 371.573 164.521 443.976 177.186 469.454H195.553L204.647 364.961L205.789 294.825L245.166 353.996L220.085 467.746L242.691 469.822L283.39 346.378L233.176 226.615L164.506 206.453Z" fill="#1E50A0"/>
<path d="M376.32 157.737C390.368 144.727 411.265 138.186 428.793 145.481C410.813 155.739 396.943 172.202 389.638 191.957C386.847 199.587 384.517 208.371 377.653 212.455C373.383 214.997 368.07 215.121 363.281 213.894C358.493 212.667 354.104 210.207 349.775 207.773L348.543 207.744C354.073 189.16 362.271 170.746 376.32 157.737Z" fill="#5BB263"/>
<path d="M428.695 146.647C413.171 148.709 398.674 155.745 387.263 166.755C384.765 169.081 382.64 171.796 380.965 174.802C379.426 177.784 378.692 181.135 378.839 184.507C378.915 187.654 379.347 190.864 378.677 193.975C378.311 195.563 377.623 197.053 376.658 198.347C375.692 199.642 374.471 200.713 373.075 201.488C369.644 203.515 365.71 204.153 361.842 204.641C357.546 205.182 353.077 205.674 349.359 208.149C348.908 208.449 348.482 207.714 348.931 207.414C355.4 203.107 363.586 204.674 370.541 201.799C373.787 200.458 376.659 198.103 377.675 194.543C378.564 191.43 378.121 188.12 378.018 184.934C377.827 181.646 378.423 178.361 379.752 175.365C381.273 172.281 383.293 169.486 385.726 167.099C391.119 161.635 397.316 157.077 404.088 153.591C411.795 149.568 420.115 146.93 428.687 145.791C429.218 145.72 429.222 146.578 428.695 146.647Z" fill="white"/>
<path d="M390.733 162.988C389.196 160.769 388.475 158.062 388.701 155.348C388.926 152.634 390.083 150.092 391.965 148.174C392.347 147.787 392.95 148.379 392.567 148.766C390.812 150.549 389.734 152.917 389.529 155.445C389.324 157.972 390.005 160.492 391.449 162.549C391.762 162.996 391.045 163.432 390.733 162.988Z" fill="white"/>
<path d="M378.596 182.917C383.93 183.888 389.425 182.757 393.985 179.75C394.436 179.452 394.863 180.188 394.412 180.486C389.662 183.606 383.941 184.77 378.392 183.747C377.863 183.649 378.07 182.819 378.596 182.917Z" fill="white"/>
<path d="M411.861 150.702C412.282 151.687 412.935 152.55 413.761 153.213C414.586 153.875 415.559 154.317 416.592 154.497C417.122 154.588 416.914 155.418 416.388 155.328C415.248 155.123 414.174 154.634 413.26 153.904C412.346 153.174 411.621 152.226 411.146 151.141C411.093 151.043 411.078 150.927 411.105 150.818C411.132 150.709 411.198 150.614 411.29 150.554C411.385 150.496 411.498 150.479 411.605 150.507C411.712 150.535 411.804 150.605 411.861 150.702Z" fill="white"/>
<path d="M448.094 208.99C447.761 208.943 447.429 208.896 447.092 208.854C442.62 208.244 438.107 208.008 433.598 208.149C433.249 208.154 432.896 208.165 432.548 208.181C421.688 208.64 411.005 211.166 401.043 215.633C397.08 217.414 393.255 219.502 389.601 221.879C384.554 225.163 379.337 229.136 373.695 230.475C373.108 230.622 372.513 230.731 371.913 230.801L348.604 210.062C348.574 209.987 348.539 209.918 348.509 209.843L347.542 209.059C347.722 208.923 347.911 208.786 348.091 208.649C348.196 208.57 348.305 208.495 348.409 208.416C348.48 208.364 348.552 208.313 348.613 208.262C348.636 208.245 348.66 208.228 348.679 208.216C348.741 208.166 348.803 208.125 348.859 208.08C349.918 207.31 350.983 206.546 352.055 205.789C352.06 205.784 352.06 205.784 352.07 205.783C360.188 199.931 368.952 195.09 378.18 191.36C378.457 191.252 378.738 191.139 379.025 191.041C383.181 189.453 387.456 188.217 391.808 187.345C394.192 186.875 396.598 186.53 399.016 186.31C405.266 185.755 411.562 186.213 417.673 187.669C429.854 190.571 440.997 197.445 447.597 208.166C447.766 208.44 447.93 208.71 448.094 208.99Z" fill="#5BB263"/>
<path d="M447.785 209.247C434.183 201.289 418.485 197.937 402.923 199.668C399.566 199.979 396.279 200.833 393.18 202.196C390.204 203.625 387.655 205.847 385.797 208.63C384.013 211.19 382.478 214.02 380.12 216.09C378.898 217.131 377.476 217.895 375.946 218.331C374.417 218.768 372.815 218.867 371.245 218.622C367.319 218.118 363.804 216.194 360.429 214.189C356.683 211.964 352.826 209.591 348.407 209.268C347.871 209.229 347.962 208.377 348.496 208.416C356.185 208.979 361.802 215.295 369.04 217.303C372.417 218.24 376.09 218.137 378.987 215.923C381.521 213.988 383.107 211.07 384.891 208.463C386.665 205.72 389.065 203.465 391.882 201.895C394.903 200.374 398.153 199.392 401.494 198.991C409.002 197.966 416.62 198.16 424.07 199.566C432.58 201.123 440.769 204.164 448.281 208.559C448.746 208.831 448.247 209.518 447.785 209.247Z" fill="white"/>
<path d="M407.902 198.807C407.974 196.085 408.986 193.477 410.756 191.45C412.526 189.423 414.939 188.108 417.565 187.741C418.097 187.669 418.232 188.514 417.699 188.587C415.253 188.924 413.005 190.149 411.36 192.04C409.716 193.931 408.783 196.364 408.731 198.9C408.719 199.451 407.891 199.355 407.902 198.807Z" fill="white"/>
<path d="M386.535 207.21C390.225 211.286 395.275 213.783 400.677 214.203C401.213 214.244 401.122 215.096 400.588 215.055C394.967 214.607 389.717 211.997 385.885 207.747C385.52 207.342 386.172 206.807 386.535 207.21Z" fill="white"/>
<path d="M431.971 202.07C431.729 203.118 431.745 204.21 432.016 205.25C432.287 206.29 432.805 207.244 433.524 208.027C433.894 208.428 433.242 208.962 432.875 208.564C432.084 207.695 431.513 206.64 431.211 205.492C430.909 204.344 430.886 203.138 431.142 201.978C431.157 201.866 431.213 201.765 431.299 201.695C431.384 201.624 431.492 201.59 431.601 201.598C431.711 201.611 431.811 201.668 431.88 201.756C431.95 201.844 431.982 201.957 431.971 202.07Z" fill="white"/>
<path d="M38.691 486.313C37.5968 490.532 34.7218 494.044 31.2506 496.603C30.6846 497.022 30.1036 497.41 29.515 497.774C29.3339 497.883 29.1528 497.999 28.9641 498.1C28.7604 498.224 28.5566 498.34 28.3529 498.449H12.0308C11.7365 497.836 11.4498 497.216 11.163 496.603C4.16784 481.498 -0.744631 465.198 0.0929794 448.595C0.42529 442.155 1.74183 435.81 3.99428 429.791C8.47663 417.794 16.6565 407.411 27.9077 402.184C28.1869 402.053 28.4812 401.921 28.7679 401.797C28.6774 402.13 28.5868 402.456 28.4963 402.789C27.2892 407.258 26.4362 411.819 25.9457 416.43C25.9004 416.786 25.8627 417.143 25.8325 417.507C24.7605 428.625 25.7124 439.851 28.6397 450.611C28.6472 450.635 28.6547 450.666 28.6623 450.689C29.3037 453.07 30.0483 455.414 30.8959 457.722C31.56 459.545 32.2769 461.344 33.0616 463.112C36.3366 470.533 40.7284 478.442 38.691 486.313Z" fill="#5BB263"/>
<path d="M28.972 402.146C28.8135 402.363 28.655 402.572 28.4966 402.789C25.1822 407.303 22.3678 412.182 20.1054 417.337C19.9846 417.593 19.8714 417.849 19.7733 418.112C16.6734 425.31 14.6825 432.96 13.8723 440.787C13.8635 440.84 13.8585 440.895 13.8572 440.949C13.6686 442.779 13.5554 444.625 13.5101 446.471C13.3423 449.93 13.7065 453.395 14.5892 456.738C15.3941 459.467 16.8044 461.968 18.7093 464.042C18.898 464.252 19.0866 464.461 19.2904 464.663C19.4413 464.825 19.6073 464.988 19.7658 465.143C21.2901 466.64 22.9578 468.028 24.3915 469.633C25.0487 470.353 25.6421 471.132 26.1648 471.96C26.9991 473.347 27.5379 474.901 27.746 476.518C27.9541 478.135 27.8267 479.78 27.3722 481.343C26.3459 485.266 23.9991 488.578 21.5995 491.734C20.3996 493.316 19.1621 494.913 18.0905 496.603C17.6982 497.208 17.336 497.821 17.004 498.449H16.0532C16.3701 497.821 16.7172 497.208 17.0945 496.603C19.8488 492.145 23.7652 488.314 25.7951 483.405C27.1685 480.094 27.5835 476.341 25.8479 473.092C25.3393 472.147 24.7238 471.267 24.0142 470.471C22.6333 468.866 20.9807 467.493 19.4791 466.043C19.1018 465.679 18.732 465.306 18.3773 464.919C16.497 462.955 15.0461 460.602 14.1214 458.017C13.0742 454.733 12.5791 451.29 12.6574 447.835C12.6574 445.633 12.7706 443.415 12.9819 441.213C13.0046 440.934 13.0347 440.647 13.0649 440.36C14.6081 426.501 19.7332 413.32 27.908 402.185C28.0589 401.967 28.2174 401.758 28.3759 401.549C28.7003 401.114 29.2964 401.719 28.972 402.146Z" fill="white"/>
<path d="M13.369 441.286C10.7553 440.835 8.38273 439.444 6.67503 437.361C4.96732 435.278 4.03568 432.64 4.04648 429.916C4.04792 429.805 4.09126 429.699 4.16736 429.62C4.24346 429.541 4.34638 429.496 4.45443 429.493C4.56249 429.491 4.66724 429.532 4.74662 429.607C4.826 429.682 4.87381 429.786 4.87998 429.897C4.86537 432.433 5.73343 434.891 7.3275 436.828C8.92157 438.764 11.1366 440.051 13.5729 440.456C14.1023 440.545 13.8953 441.375 13.369 441.286Z" fill="white"/>
<path d="M18.4996 464.198C22.9402 461.009 26.0477 456.216 27.2026 450.777C27.3166 450.238 28.1246 450.448 28.0108 450.986C26.7987 456.644 23.555 461.625 18.9269 464.934C18.4856 465.249 18.0607 464.512 18.4996 464.198Z" fill="white"/>
<path d="M19.8553 417.246C20.8312 417.637 21.8864 417.773 22.926 417.642C23.9657 417.51 24.9573 417.115 25.8118 416.493C26.249 416.172 26.6734 416.909 26.239 417.228C25.2919 417.911 24.1962 418.346 23.0479 418.494C21.8996 418.642 20.7334 418.499 19.6514 418.077C19.5462 418.046 19.4564 417.975 19.4003 417.878C19.3441 417.781 19.3259 417.666 19.3493 417.557C19.3768 417.447 19.4454 417.353 19.5402 417.294C19.6349 417.236 19.7482 417.219 19.8553 417.246Z" fill="white"/>
<path d="M85.582 432.132C85.3179 432.342 85.0462 432.551 84.7821 432.768C81.1995 435.586 77.8455 438.698 74.7534 442.074C74.5119 442.33 74.2705 442.593 74.0365 442.857L74.029 442.865C66.6972 451.044 60.9 460.545 56.9296 470.889L56.907 470.959C56.8995 470.983 56.8919 470.998 56.8844 471.021C55.3106 475.162 54.0418 479.418 53.0887 483.754C52.1681 487.988 51.4135 492.525 49.9722 496.603C49.7533 497.232 49.5119 497.852 49.2553 498.449H15.7056C15.8188 497.836 15.9395 497.216 16.0602 496.603C17.7669 487.618 20.4342 478.854 24.0138 470.471C24.1345 470.192 24.2552 469.912 24.3911 469.633C26.239 465.491 28.4118 461.51 30.8882 457.73L30.8888 457.727L30.8904 457.725L30.8929 457.723L30.8958 457.722C32.2556 455.66 33.7163 453.669 35.2725 451.759C39.3082 446.825 44.0754 442.575 49.3987 439.166C49.4289 439.142 49.4666 439.127 49.4968 439.104C60.0914 432.35 72.6481 429.131 84.6538 431.915H84.6614C84.9708 431.985 85.2726 432.055 85.582 432.132Z" fill="#5BB263"/>
<path d="M85.5445 432.543C85.2879 432.613 85.0314 432.691 84.7823 432.768C79.4938 434.321 74.3891 436.472 69.562 439.181C69.3205 439.313 69.079 439.453 68.8375 439.592C62.1665 443.418 56.1111 448.281 50.8855 454.008C50.8814 454.012 50.8788 454.018 50.878 454.023C50.8176 454.085 50.7497 454.155 50.6969 454.217C49.4895 455.551 48.3274 456.939 47.2257 458.366C45.0706 461.026 43.3341 464.017 42.0793 467.229C41.1204 469.907 40.7819 472.777 41.0907 475.612C41.1134 475.899 41.1511 476.178 41.1888 476.465C41.219 476.69 41.2492 476.915 41.2869 477.147C41.785 480.257 42.6452 483.374 42.4038 486.546C42.2568 488.171 41.7768 489.746 40.9951 491.166C40.2134 492.587 39.1479 493.822 37.8686 494.789C36.9989 495.48 36.0694 496.087 35.0916 496.603C33.6937 497.344 32.2371 497.961 30.7376 498.449H27.772C28.1719 498.333 28.5643 498.216 28.9642 498.1C30.3835 497.689 31.777 497.189 33.1372 496.603C33.9142 496.27 34.6703 495.886 35.401 495.456C38.4345 493.665 40.9625 490.919 41.4907 487.252C41.951 484.041 41.0606 480.831 40.5323 477.69C40.4418 477.147 40.3588 476.612 40.3135 476.077C39.9532 473.358 40.172 470.59 40.9549 467.966C42.0407 464.693 43.6639 461.635 45.7542 458.924C47.0472 457.16 48.4275 455.464 49.8894 453.845C50.0705 453.636 50.2592 453.426 50.4554 453.217C55.7908 447.449 61.9514 442.551 68.7244 438.693H68.7319C73.7679 435.812 79.1107 433.538 84.6541 431.915H84.6616C84.9106 431.838 85.1672 431.76 85.4162 431.69C85.9369 431.551 86.0576 432.396 85.5445 432.543Z" fill="white"/>
<path d="M50.1566 454.139C48.3341 452.162 47.2548 449.583 47.1116 446.864C46.9683 444.144 47.7705 441.461 49.3748 439.293C49.7009 438.855 50.3778 439.356 50.0513 439.794C48.5537 441.81 47.8068 444.309 47.9452 446.841C48.0836 449.374 49.0982 451.771 50.806 453.602C51.1767 454.001 50.5252 454.535 50.1566 454.139Z" fill="white"/>
<path d="M40.8293 475.607C46.2436 475.808 51.5325 473.904 55.6416 470.276C56.0484 469.916 56.5704 470.583 56.1641 470.943C51.8813 474.711 46.3734 476.68 40.7396 476.459C40.2026 476.437 40.2952 475.586 40.8293 475.607Z" fill="white"/>
<path d="M69.4206 438.958C69.9707 439.874 70.7336 440.635 71.6407 441.173C72.5479 441.711 73.5709 442.01 74.618 442.041C75.1549 442.056 75.0617 442.907 74.5283 442.893C73.3716 442.852 72.2422 442.522 71.2386 441.929C70.2351 441.337 69.3879 440.501 68.7713 439.494C68.7054 439.405 68.6753 439.292 68.6871 439.18C68.6989 439.069 68.7516 438.966 68.8347 438.892C68.921 438.822 69.031 438.789 69.1407 438.801C69.2504 438.813 69.351 438.87 69.4206 438.958Z" fill="white"/>
<path d="M344.388 134.254C343.614 135.3 342.625 136.16 341.493 136.772C340.36 137.384 339.111 137.733 337.832 137.795C336.554 137.857 335.278 137.63 334.095 137.13C332.911 136.631 331.848 135.87 330.981 134.903L302.457 147.652L305.235 131.288L331.897 121.691C333.575 120.302 335.69 119.594 337.842 119.701C339.994 119.808 342.033 120.722 343.572 122.271C345.112 123.819 346.046 125.894 346.196 128.103C346.346 130.311 345.703 132.5 344.388 134.254Z" fill="#FFB8B8"/>
<path d="M325.354 139.363L259.101 169.689L258.959 169.637L183.448 141.985C177.823 138.965 173.535 133.849 171.461 127.685C169.388 121.521 169.685 114.776 172.293 108.83C173.739 105.545 175.845 102.612 178.474 100.224C181.102 97.836 184.192 96.0469 187.542 94.9747C190.892 93.9025 194.424 93.5714 197.907 94.0033C201.39 94.4352 204.745 95.6203 207.75 97.4805L263.945 132.267L318.435 125.009L325.354 139.363Z" fill="#E6E6E6"/>
<path d="M236.451 230.151L169.664 219.173C167.912 218.597 166.303 217.638 164.946 216.362C163.589 215.086 162.517 213.523 161.803 211.781C161.089 210.039 160.751 208.159 160.811 206.27C160.871 204.381 161.328 202.527 162.151 200.837L165.18 194.611L164.003 129.205C163.862 120.697 165.903 112.301 169.921 104.861C173.94 97.421 179.794 91.1999 186.895 86.8234L193.408 82.8216L196.7 74.2322L227.05 74.9929L227.139 86.2581L238.008 104.069L238.007 104.143L237.325 201.085L234.33 211.089L238.859 222.725L236.451 230.151Z" fill="#E6E6E6"/>
<path d="M214.654 63.5514C229.884 63.5514 242.23 50.8639 242.23 35.2132C242.23 19.5624 229.884 6.875 214.654 6.875C199.424 6.875 187.078 19.5624 187.078 35.2132C187.078 50.8639 199.424 63.5514 214.654 63.5514Z" fill="#FFB8B8"/>
<path d="M185.939 41.3909C185.116 37.8302 185.494 32.8195 185.959 29.2342C187.177 19.8347 192.257 10.8988 199.974 5.60582C201.438 4.46371 203.176 3.75362 205.003 3.55207C206.829 3.47375 208.808 4.47809 209.369 6.26537C209.828 5.08576 210.519 4.01553 211.397 3.12074C212.275 2.22595 213.322 1.52558 214.474 1.06287C216.787 0.151988 219.276 -0.192485 221.741 0.0567541C226.52 0.46157 231.104 2.18844 235.005 5.05409C238.906 7.91975 241.979 11.8173 243.899 16.3331C244.635 18.1312 246.693 11.4894 247.626 13.1884C248.483 14.9544 249.98 16.3053 251.794 16.952C253.623 17.4763 254.366 25.2186 255.085 23.4132C255.643 24.7474 255.864 26.2051 255.727 27.6506C255.589 29.096 255.098 30.4822 254.299 31.68C253.5 32.8778 252.418 33.8484 251.156 34.5012C249.893 35.154 248.491 35.4678 247.078 35.4135C245.217 35.3419 243.437 34.6385 241.598 34.3356C235.022 33.2528 228.046 38.1533 226.64 44.8434C226.136 42.9087 225.332 41.0703 224.259 39.399C223.713 38.5678 222.983 37.8823 222.128 37.3996C221.273 36.917 220.319 36.651 219.344 36.6239C217.473 36.6959 215.828 37.953 214.614 39.4178C213.4 40.8827 212.488 42.5918 211.265 44.0487C207.677 48.3238 202.823 58.2935 197.709 57.5664C193.673 56.9926 187.062 46.2527 185.939 41.3909Z" fill="#67242C"/>
<path d="M381.35 166.366C381.543 165.074 381.285 163.753 380.621 162.639C379.957 161.524 378.93 160.687 377.723 160.276L303.46 134.859C302.748 134.614 301.994 134.525 301.246 134.597L282.633 136.406L271.952 137.447L252.243 139.361C251.053 139.478 249.934 139.998 249.063 140.838C248.191 141.679 247.615 142.793 247.426 144.006L237.419 208.243C237.229 209.496 237.461 210.777 238.077 211.877C238.692 212.976 239.654 213.826 240.803 214.288L315.841 244.053C316.193 244.194 316.559 244.295 316.932 244.354C317.476 244.445 318.029 244.449 318.574 244.367L367.061 236.982C368.205 236.812 369.265 236.268 370.084 235.43C370.902 234.592 371.436 233.505 371.606 232.33L381.35 166.366Z" fill="white"/>
<path d="M242.504 209.762L317.541 239.526C317.651 239.57 317.77 239.584 317.886 239.567L366.367 232.183C366.511 232.163 366.644 232.095 366.747 231.99C366.85 231.885 366.917 231.748 366.937 231.6L376.686 165.635C376.708 165.474 376.676 165.31 376.593 165.171C376.51 165.032 376.384 164.927 376.234 164.874L375.735 164.7L301.966 139.463C301.933 139.45 301.898 139.442 301.863 139.437C301.805 139.426 301.747 139.423 301.689 139.428L256.289 143.843L252.686 144.19C252.538 144.206 252.4 144.272 252.292 144.376C252.183 144.481 252.111 144.619 252.087 144.77L242.081 209.004C242.057 209.161 242.085 209.322 242.162 209.459C242.239 209.597 242.359 209.704 242.504 209.762Z" fill="#F16E46"/>
<path d="M256.29 143.843L301.69 139.428C301.748 139.423 301.806 139.426 301.863 139.437C301.899 139.442 301.933 139.45 301.967 139.463L375.735 164.7L356.277 166.817L348.994 167.606L328.273 169.855C328.212 169.858 328.151 169.858 328.091 169.853C328.054 169.842 328.017 169.83 327.973 169.818L256.29 143.843Z" fill="#2F2E41"/>
<path d="M240.802 214.292L315.84 244.056C316.193 244.195 316.56 244.294 316.934 244.35C317.478 244.442 318.032 244.45 318.577 244.371L367.058 236.987C368.203 236.816 369.263 236.271 370.082 235.432C370.901 234.594 371.436 233.507 371.607 232.331L381.349 166.366C381.493 165.393 381.384 164.399 381.034 163.484C380.984 163.362 380.935 163.24 380.877 163.125C380.491 162.29 379.903 161.57 379.169 161.034C378.727 160.708 378.24 160.452 377.723 160.276L377.635 160.244L303.464 134.858C303.161 134.759 302.851 134.681 302.538 134.627C302.109 134.564 301.675 134.556 301.244 134.601L282.633 136.404L271.954 137.451L252.241 139.363C251.434 139.441 250.656 139.705 249.963 140.137C249.91 140.163 249.858 140.195 249.81 140.231C249.776 140.254 249.743 140.279 249.712 140.307C249.108 140.731 248.593 141.277 248.2 141.912C247.808 142.547 247.545 143.258 247.428 144.001L237.415 208.242C237.225 209.496 237.458 210.779 238.074 211.879C238.689 212.978 239.652 213.83 240.802 214.292ZM248.757 144.225C248.878 143.455 249.211 142.736 249.715 142.153C249.868 141.966 250.039 141.794 250.225 141.642C250.734 141.219 251.336 140.931 251.978 140.802C252.105 140.775 252.233 140.756 252.363 140.746L285.554 137.524L301.374 135.977C301.481 135.964 301.579 135.966 301.679 135.96C301.918 135.955 302.157 135.973 302.394 136.015C302.611 136.044 302.824 136.096 303.031 136.171L377.291 161.589C377.349 161.611 377.4 161.631 377.459 161.652C378.134 161.911 378.727 162.354 379.174 162.935C379.527 163.379 379.785 163.895 379.931 164.449C380.077 165.003 380.107 165.583 380.02 166.149L370.27 232.122C370.142 233.002 369.742 233.816 369.13 234.445C368.517 235.073 367.724 235.483 366.868 235.613L318.379 242.996C317.685 243.099 316.978 243.016 316.324 242.756L241.286 213C240.426 212.651 239.706 212.013 239.246 211.189C238.785 210.366 238.61 209.405 238.751 208.466L248.757 144.225Z" fill="#3F3D56"/>
<path d="M249.551 140.657C249.59 140.54 249.66 140.437 249.753 140.358C249.784 140.332 249.816 140.309 249.85 140.289C249.882 140.277 249.914 140.256 249.946 140.244C250.096 140.182 250.264 140.179 250.416 140.236L251.978 140.802L328.281 168.462L346.138 166.523L356.132 165.44L377.283 163.139L379.174 162.935L379.542 162.893C379.7 162.878 379.859 162.921 379.99 163.013C380.121 163.106 380.217 163.243 380.26 163.4C380.27 163.436 380.277 163.473 380.28 163.511C380.296 163.66 380.264 163.811 380.189 163.94C380.114 164.069 380 164.169 379.865 164.226C379.805 164.251 379.742 164.269 379.678 164.278L377.106 164.555L356.276 166.817L348.994 167.606L328.272 169.855C328.212 169.858 328.151 169.858 328.091 169.853C328.054 169.842 328.017 169.83 327.973 169.818L250.225 141.642L249.961 141.546C249.9 141.526 249.844 141.494 249.795 141.452C249.678 141.364 249.591 141.239 249.547 141.096C249.503 140.953 249.504 140.799 249.551 140.657Z" fill="#3F3D56"/>
<path d="M317.139 244.552C316.963 244.523 316.806 244.424 316.701 244.277C316.596 244.129 316.552 243.945 316.578 243.764L327.533 169.062C327.56 168.88 327.655 168.717 327.799 168.608C327.943 168.499 328.123 168.453 328.3 168.48L328.306 168.481C328.482 168.51 328.639 168.609 328.744 168.756C328.849 168.904 328.893 169.088 328.867 169.269L317.912 243.971C317.885 244.153 317.79 244.316 317.646 244.425C317.502 244.535 317.322 244.58 317.145 244.553L317.139 244.552Z" fill="#3F3D56"/>
<path d="M344.905 239.813L337.62 240.603L346.142 166.521C346.142 166.521 355.872 164.71 356.132 165.436C356.292 165.87 344.975 239.338 344.905 239.813Z" fill="#3F3D56"/>
<path d="M249.963 141.545L249.767 175.329L307.966 198.118L328.867 169.269L249.963 141.545Z" fill="#3F3D56"/>
<path d="M379.176 162.936C378.69 162.308 378.035 161.839 377.292 161.589L303.035 136.172C302.826 136.1 302.612 136.046 302.395 136.012C302.158 135.97 301.918 135.951 301.677 135.956L301.798 135.183L302.541 134.63L320.175 121.51L379.065 140.057L379.167 161.034L379.176 162.936Z" fill="#3F3D56"/>
<path d="M252.929 195.78C253.013 195.789 253.095 195.806 253.175 195.833L275.959 203.523C276.245 203.619 276.481 203.828 276.617 204.104C276.752 204.379 276.776 204.698 276.682 204.991C276.588 205.284 276.385 205.527 276.117 205.667C275.849 205.806 275.539 205.83 275.253 205.734L252.469 198.044C252.205 197.954 251.981 197.768 251.842 197.52C251.703 197.273 251.657 196.981 251.714 196.701C251.771 196.421 251.927 196.172 252.151 196.002C252.375 195.832 252.652 195.753 252.929 195.78Z" fill="white"/>
<path d="M372.017 307.963C377.018 307.963 381.072 303.796 381.072 298.657C381.072 293.518 377.018 289.352 372.017 289.352C367.016 289.352 362.962 293.518 362.962 298.657C362.962 303.796 367.016 307.963 372.017 307.963Z" fill="#F16E46"/>
<path d="M113.948 371.624C118.949 371.624 123.003 367.458 123.003 362.319C123.003 357.179 118.949 353.013 113.948 353.013C108.947 353.013 104.893 357.179 104.893 362.319C104.893 367.458 108.947 371.624 113.948 371.624Z" fill="#F39746"/>
<path d="M302.599 63.77C307.6 63.77 311.654 59.6038 311.654 54.4646C311.654 49.3254 307.6 45.1592 302.599 45.1592C297.598 45.1592 293.543 49.3254 293.543 54.4646C293.543 59.6038 297.598 63.77 302.599 63.77Z" fill="#F39746"/>
<path d="M317.456 209.466C316.282 209.99 315.011 210.243 313.732 210.208C312.453 210.172 311.197 209.849 310.052 209.261C308.908 208.672 307.903 207.833 307.108 206.803C306.313 205.772 305.748 204.575 305.452 203.296L274.504 200.083L284.714 187.205L312.538 192.231C314.662 191.862 316.844 192.308 318.67 193.482C320.496 194.657 321.84 196.479 322.446 198.603C323.052 200.728 322.879 203.007 321.96 205.009C321.04 207.011 319.437 208.597 317.456 209.466Z" fill="#FFB8B8"/>
<path d="M298.421 204.358L226.199 197.519L226.1 197.402L173.39 135.338C169.921 129.877 168.615 123.259 169.74 116.841C170.864 110.422 174.333 104.688 179.437 100.812C182.261 98.6731 185.494 97.173 188.923 96.4105C192.352 95.648 195.899 95.6405 199.331 96.3884C202.763 97.1363 206.002 98.6226 208.835 100.75C211.668 102.877 214.03 105.596 215.766 108.729L248.231 167.31L299.217 188.361L298.421 204.358Z" fill="#E6E6E6"/>
<path d="M479.695 85.0024C477.902 71.4833 475.652 56.9685 466.374 47.2093C463.429 44.1128 459.905 41.6609 456.014 40.0017C452.123 38.3424 447.945 37.5101 443.732 37.5549C439.52 37.5997 435.359 38.5207 431.502 40.2624C427.645 42.0041 424.172 44.5303 421.29 47.6889C414.536 55.0934 411.553 65.4907 411.28 75.636C411.007 85.7813 413.206 95.8139 415.645 105.649C428.554 105.914 441.366 103.322 453.214 98.0497C456.177 96.7283 459.092 95.2344 462.222 94.4157C465.352 93.597 467.583 95.6571 470.494 97.0936L472.092 93.9488C473.401 96.4508 477.452 95.7092 478.922 93.3034C480.391 90.8976 480.069 87.8167 479.695 85.0024Z" fill="#67242C"/>
<path d="M428.527 160.461L375.798 161.619C374.989 160.181 373.79 159.015 372.347 158.264C370.905 157.514 369.281 157.21 367.673 157.39C366.066 157.57 364.544 158.227 363.293 159.279C362.041 160.332 361.115 161.736 360.626 163.32C360.137 164.904 360.107 166.6 360.539 168.201C360.971 169.802 361.846 171.24 363.059 172.34C364.271 173.439 365.769 174.153 367.369 174.393C368.969 174.634 370.602 174.392 372.071 173.696C379.064 174.105 433.776 182.084 437.04 176.942C440.353 171.722 458.037 153.301 458.037 153.301L444.444 133.416L428.527 160.461Z" fill="#FB9A9A"/>
<path d="M441.377 98.3779C455.059 98.3779 466.151 86.9798 466.151 72.9197C466.151 58.8595 455.059 47.4615 441.377 47.4615C427.695 47.4615 416.603 58.8595 416.603 72.9197C416.603 86.9798 427.695 98.3779 441.377 98.3779Z" fill="#FB9A9A"/>
<path d="M481.056 121.904C478.136 115.933 476.718 108.557 470.494 106.621C466.291 105.314 449.291 107.273 445.461 109.479C439.089 113.15 444.863 120.027 441.104 126.463C437.018 133.46 425.913 147.501 421.826 154.498C419.017 159.308 428.48 173.426 426.961 178.814C425.442 184.203 425.369 190.25 427.956 195.19C430.272 199.611 426.922 203.522 429.251 207.936C431.673 212.526 434.645 229.689 432.391 234.369L430.882 239.022C445.858 239.926 458.451 221.54 473.334 219.603C477.031 219.122 480.869 218.494 483.916 216.289C488.403 213.041 490.177 207.147 491.285 201.623C496.621 174.621 493.02 146.561 481.056 121.904Z" fill="#F0B23A"/>
<path d="M503.51 184.949C501.424 179.098 497.648 153.515 497.648 153.515L474.01 152.803L485.567 182.093L454.031 227.459C454.031 227.459 454.09 227.559 454.196 227.737C452.538 227.463 450.838 227.711 449.319 228.446C447.8 229.182 446.533 230.372 445.683 231.86C444.832 233.348 444.439 235.065 444.554 236.787C444.669 238.508 445.288 240.154 446.328 241.508C447.368 242.863 448.782 243.863 450.385 244.378C451.988 244.893 453.704 244.899 455.31 244.395C456.916 243.891 458.337 242.901 459.386 241.554C460.435 240.206 461.064 238.565 461.191 236.844C461.307 236.913 461.443 236.937 461.575 236.914C461.707 236.891 461.826 236.821 461.914 236.717C465.423 232.192 505.596 190.801 503.51 184.949Z" fill="#FB9A9A"/>
<path d="M505.913 168.793C503.743 159.383 501.557 149.922 497.9 141.012C494.242 132.102 489.005 123.686 481.64 117.666C479.286 115.742 476.653 114.043 473.701 113.445C470.75 112.847 467.423 113.516 465.35 115.757C462.033 119.342 463.031 125.097 464.248 129.884C467.836 143.997 471.423 158.111 475.011 172.224C485.371 171.096 495.731 169.967 506.091 168.839L505.913 168.793Z" fill="#F0B23A"/>
<path d="M471.733 76.4509C470.821 70.2923 469.868 64.0821 467.724 58.2832C465.581 52.4842 462.126 47.0527 457.17 43.7676C449.323 38.5666 439.164 39.5697 430.366 42.5615C423.562 44.8752 416.921 48.3918 412.123 54.0454C407.325 59.699 404.63 67.766 406.415 75.1583C415.799 72.8798 425.184 70.6013 434.568 68.3228L433.541 69.0688C436.622 70.6477 439.313 72.9273 441.409 75.7345C443.505 78.5417 444.951 81.8028 445.638 85.2701C446.309 88.7795 446.212 92.3984 445.356 95.8649C444.499 99.3314 442.903 102.559 440.683 105.314C447.084 102.981 453.484 100.647 459.884 98.3143C463.835 96.8742 468.063 95.2148 470.405 91.521C473.121 87.2383 472.49 81.5618 471.733 76.4509Z" fill="#67242C"/>
<path d="M418.378 364.592C417.819 367.167 416.35 369.311 414.577 370.873C414.288 371.129 413.991 371.366 413.69 371.588C413.598 371.654 413.505 371.725 413.409 371.787C413.305 371.863 413.201 371.934 413.096 372H404.758C404.608 371.626 404.461 371.247 404.315 370.873C400.741 361.652 398.232 351.702 398.66 341.567C398.83 337.636 399.502 333.763 400.653 330.088C402.943 322.765 407.121 316.427 412.869 313.237C413.012 313.156 413.162 313.076 413.308 313C413.262 313.204 413.216 313.402 413.17 313.606C412.553 316.334 412.117 319.118 411.867 321.932C411.844 322.15 411.824 322.368 411.809 322.59C411.261 329.377 411.748 336.23 413.243 342.798C413.247 342.812 413.251 342.831 413.255 342.846C413.582 344.299 413.963 345.73 414.396 347.139C414.735 348.251 415.101 349.35 415.502 350.429C417.175 354.959 419.419 359.787 418.378 364.592Z" fill="#5BB263"/>
<path d="M413.584 313.454C413.497 313.586 413.41 313.713 413.323 313.845C411.503 316.589 409.958 319.556 408.715 322.689C408.649 322.845 408.587 323 408.533 323.161C406.831 327.536 405.738 332.187 405.293 336.945C405.288 336.978 405.285 337.011 405.285 337.044C405.181 338.157 405.119 339.279 405.094 340.401C405.002 342.504 405.202 344.61 405.687 346.642C406.129 348.302 406.903 349.822 407.949 351.083C408.053 351.21 408.156 351.338 408.268 351.46C408.351 351.559 408.442 351.658 408.529 351.752C409.366 352.662 410.282 353.506 411.069 354.482C411.43 354.92 411.756 355.393 412.043 355.896C412.501 356.74 412.797 357.684 412.911 358.668C413.025 359.651 412.955 360.65 412.706 361.6C412.142 363.986 410.853 365.999 409.536 367.917C408.877 368.879 408.198 369.85 407.609 370.878C407.394 371.246 407.195 371.618 407.013 372H406.491C406.665 371.618 406.855 371.246 407.062 370.878C408.575 368.167 410.725 365.839 411.84 362.854C412.594 360.841 412.822 358.56 411.869 356.585C411.589 356.01 411.251 355.475 410.862 354.991C410.104 354.015 409.196 353.181 408.372 352.299C408.164 352.078 407.961 351.851 407.767 351.616C406.734 350.422 405.938 348.992 405.43 347.42C404.855 345.424 404.583 343.331 404.626 341.23C404.626 339.891 404.688 338.543 404.804 337.204C404.817 337.035 404.833 336.86 404.85 336.686C405.697 328.261 408.511 320.247 413 313.478C413.083 313.346 413.17 313.218 413.257 313.091C413.435 312.827 413.762 313.195 413.584 313.454Z" fill="white"/>
<path d="M405.362 336.996C404.031 336.728 402.823 335.903 401.954 334.668C401.084 333.432 400.61 331.867 400.615 330.251C400.616 330.185 400.638 330.122 400.677 330.075C400.716 330.028 400.768 330.002 400.823 330C400.878 329.999 400.931 330.023 400.972 330.068C401.012 330.112 401.037 330.174 401.04 330.24C401.032 331.744 401.474 333.202 402.286 334.351C403.098 335.5 404.225 336.263 405.466 336.503C405.735 336.556 405.63 337.048 405.362 336.996Z" fill="white"/>
<path d="M407.74 350.553C410.489 348.799 412.413 346.164 413.128 343.173C413.199 342.876 413.699 342.992 413.628 343.288C412.878 346.4 410.87 349.138 408.005 350.958C407.732 351.131 407.469 350.726 407.74 350.553Z" fill="white"/>
<path d="M408.847 322.779C409.261 323.145 409.709 323.272 410.15 323.149C410.591 323.026 411.012 322.657 411.374 322.074C411.56 321.774 411.74 322.464 411.555 322.762C411.153 323.402 410.689 323.809 410.201 323.947C409.714 324.086 409.219 323.951 408.76 323.556C408.716 323.527 408.678 323.461 408.654 323.371C408.63 323.28 408.622 323.173 408.632 323.07C408.644 322.967 408.673 322.879 408.713 322.824C408.753 322.77 408.801 322.754 408.847 322.779Z" fill="white"/>
<path d="M442.68 331.74C442.544 331.867 442.403 331.994 442.267 332.126C440.419 333.836 438.688 335.726 437.092 337.775C436.968 337.93 436.843 338.091 436.723 338.251L436.719 338.255C432.936 343.221 429.944 348.989 427.896 355.269L427.884 355.311C427.88 355.325 427.876 355.335 427.872 355.349C427.06 357.863 426.406 360.447 425.914 363.079C425.439 365.649 425.049 368.403 424.306 370.88C424.193 371.261 424.068 371.638 423.936 372H406.625C406.683 371.628 406.745 371.251 406.808 370.88C407.688 365.425 409.064 360.104 410.911 355.015C410.974 354.845 411.036 354.676 411.106 354.506C412.06 351.991 413.181 349.575 414.459 347.28L414.459 347.278L414.46 347.277L414.461 347.276L414.462 347.275C415.164 346.023 415.918 344.815 416.721 343.655C418.803 340.659 421.263 338.079 424.01 336.01C424.025 335.996 424.045 335.986 424.06 335.972C429.527 331.872 436.006 329.918 442.201 331.608H442.205C442.365 331.65 442.52 331.693 442.68 331.74Z" fill="#5BB263"/>
<path d="M442.515 331.533C442.387 331.576 442.259 331.624 442.134 331.671C439.491 332.625 436.939 333.945 434.526 335.609C434.405 335.69 434.284 335.776 434.164 335.861C430.829 338.211 427.802 341.196 425.19 344.713C425.188 344.715 425.186 344.719 425.186 344.722C425.156 344.76 425.122 344.803 425.095 344.841C424.492 345.66 423.911 346.512 423.36 347.389C422.283 349.022 421.415 350.858 420.787 352.831C420.308 354.475 420.139 356.237 420.293 357.978C420.305 358.154 420.323 358.325 420.342 358.502C420.357 358.64 420.372 358.778 420.391 358.921C420.64 360.83 421.07 362.744 420.95 364.691C420.876 365.689 420.636 366.656 420.245 367.528C419.855 368.401 419.322 369.159 418.682 369.753C418.248 370.177 417.783 370.55 417.294 370.867C416.595 371.322 415.867 371.701 415.118 372H413.635C413.835 371.929 414.031 371.857 414.231 371.786C414.941 371.533 415.637 371.226 416.317 370.867C416.706 370.662 417.084 370.426 417.449 370.162C418.965 369.062 420.229 367.377 420.493 365.125C420.723 363.153 420.278 361.182 420.014 359.254C419.969 358.921 419.927 358.592 419.905 358.264C419.725 356.594 419.834 354.894 420.225 353.283C420.768 351.273 421.58 349.396 422.624 347.731C423.271 346.648 423.961 345.607 424.692 344.613C424.782 344.484 424.876 344.356 424.975 344.227C427.642 340.685 430.721 337.678 434.107 335.309H434.111C436.628 333.54 439.299 332.144 442.07 331.148H442.074C442.198 331.1 442.327 331.052 442.451 331.01C442.712 330.924 442.772 331.443 442.515 331.533Z" fill="white"/>
<path d="M424.254 344.908C423.299 343.603 422.733 341.902 422.658 340.107C422.583 338.313 423.003 336.542 423.844 335.112C424.015 334.823 424.37 335.153 424.199 335.442C423.414 336.772 423.022 338.422 423.095 340.092C423.168 341.763 423.699 343.346 424.595 344.554C424.789 344.817 424.447 345.169 424.254 344.908Z" fill="white"/>
<path d="M419.871 357.587C422.594 357.682 425.254 356.776 427.32 355.049C427.525 354.878 427.787 355.196 427.583 355.367C425.429 357.16 422.659 358.097 419.825 357.992C419.555 357.982 419.602 357.577 419.871 357.587Z" fill="white"/>
<path d="M433.133 337.116C433.483 337.788 433.969 338.346 434.546 338.74C435.124 339.134 435.775 339.353 436.442 339.376C436.784 339.387 436.724 340.01 436.385 340C435.648 339.97 434.929 339.728 434.29 339.294C433.652 338.86 433.112 338.247 432.72 337.51C432.678 337.444 432.659 337.362 432.666 337.28C432.674 337.198 432.707 337.122 432.76 337.069C432.815 337.017 432.885 336.993 432.955 337.002C433.025 337.011 433.089 337.052 433.133 337.116Z" fill="white"/>
<path d="M594.055 362.611C599.056 362.611 603.11 358.445 603.11 353.305C603.11 348.166 599.056 344 594.055 344C589.054 344 585 348.166 585 353.305C585 358.445 589.054 362.611 594.055 362.611Z" fill="#F39746"/>
</g>
<path d="M663.632 487.914C662.539 492.133 659.668 495.646 656.203 498.205C655.637 498.623 655.057 499.011 654.47 499.376C654.289 499.484 654.108 499.601 653.92 499.701C653.716 499.825 653.513 499.942 653.309 500.05H637.012C636.718 499.438 636.432 498.817 636.146 498.205C629.161 483.099 624.257 466.799 625.093 450.197C625.425 443.757 626.739 437.411 628.988 431.392C633.464 419.396 641.631 409.012 652.865 403.786C653.144 403.654 653.437 403.522 653.724 403.398C653.633 403.732 653.543 404.057 653.453 404.391C652.247 408.859 651.396 413.421 650.906 418.031C650.861 418.388 650.823 418.744 650.793 419.109C649.722 430.227 650.673 441.453 653.596 452.213C653.603 452.236 653.611 452.267 653.618 452.29C654.259 454.671 655.002 457.015 655.848 459.324C656.511 461.146 657.227 462.945 658.011 464.713C661.281 472.134 665.666 480.044 663.632 487.914Z" fill="#5BB263"/>
<path d="M653.927 403.747C653.769 403.964 653.611 404.174 653.453 404.391C650.143 408.904 647.333 413.784 645.074 418.938C644.954 419.194 644.841 419.45 644.743 419.714C641.648 426.911 639.66 434.561 638.851 442.388C638.842 442.442 638.837 442.496 638.836 442.551C638.647 444.381 638.534 446.226 638.489 448.072C638.322 451.531 638.685 454.996 639.567 458.339C640.37 461.069 641.779 463.569 643.68 465.644C643.869 465.853 644.057 466.062 644.261 466.264C644.411 466.427 644.577 466.59 644.735 466.745C646.257 468.241 647.922 469.629 649.354 471.235C650.01 471.954 650.603 472.733 651.125 473.561C651.957 474.949 652.496 476.502 652.703 478.12C652.911 479.737 652.784 481.381 652.33 482.944C651.305 486.868 648.962 490.179 646.566 493.335C645.368 494.917 644.133 496.514 643.063 498.205C642.671 498.81 642.309 499.422 641.978 500.05H641.028C641.345 499.422 641.691 498.81 642.068 498.205C644.818 493.746 648.729 489.915 650.755 485.007C652.127 481.695 652.541 477.942 650.808 474.693C650.3 473.748 649.686 472.869 648.977 472.072C647.598 470.467 645.948 469.094 644.449 467.644C644.072 467.28 643.703 466.908 643.349 466.52C641.472 464.557 640.023 462.204 639.1 459.618C638.054 456.335 637.56 452.891 637.638 449.437C637.638 447.234 637.751 445.017 637.962 442.814C637.984 442.535 638.015 442.248 638.045 441.961C639.586 428.103 644.703 414.921 652.865 403.786C653.016 403.569 653.174 403.359 653.332 403.15C653.656 402.716 654.251 403.321 653.927 403.747Z" fill="white"/>
<path d="M638.349 442.888C635.739 442.437 633.37 441.045 631.665 438.963C629.96 436.88 629.03 434.241 629.041 431.517C629.042 431.406 629.085 431.3 629.161 431.221C629.237 431.142 629.34 431.097 629.448 431.095C629.556 431.092 629.66 431.133 629.74 431.208C629.819 431.284 629.867 431.388 629.873 431.499C629.858 434.035 630.725 436.493 632.317 438.429C633.908 440.365 636.12 441.652 638.552 442.057C639.081 442.146 638.874 442.976 638.349 442.888Z" fill="white"/>
<path d="M643.471 465.8C647.905 462.61 651.008 457.818 652.161 452.378C652.274 451.839 653.081 452.049 652.968 452.588C651.757 458.246 648.519 463.226 643.898 466.535C643.457 466.85 643.033 466.113 643.471 465.8Z" fill="white"/>
<path d="M644.825 418.847C645.799 419.239 646.853 419.374 647.891 419.243C648.929 419.111 649.919 418.717 650.772 418.094C651.209 417.773 651.632 418.511 651.199 418.829C650.253 419.513 649.159 419.947 648.012 420.095C646.866 420.243 645.702 420.1 644.621 419.678C644.516 419.647 644.426 419.576 644.37 419.479C644.314 419.383 644.296 419.268 644.319 419.158C644.347 419.048 644.415 418.954 644.51 418.896C644.605 418.838 644.718 418.82 644.825 418.847Z" fill="white"/>
<path d="M710.451 433.734C710.187 433.943 709.916 434.152 709.652 434.37C706.075 437.187 702.726 440.299 699.639 443.675C699.398 443.931 699.157 444.195 698.923 444.458L698.915 444.466C691.595 452.645 685.807 462.146 681.842 472.491L681.82 472.561C681.812 472.584 681.805 472.599 681.797 472.623C680.226 476.763 678.959 481.02 678.007 485.356C677.088 489.589 676.335 494.126 674.896 498.205C674.677 498.833 674.436 499.453 674.18 500.05H640.682C640.795 499.438 640.915 498.817 641.036 498.205C642.74 489.219 645.403 480.455 648.977 472.072C649.098 471.793 649.218 471.514 649.354 471.235C651.199 467.092 653.368 463.111 655.841 459.331L655.842 459.328L655.843 459.326L655.846 459.324L655.849 459.324C657.206 457.261 658.665 455.271 660.218 453.36C664.248 448.426 669.008 444.176 674.323 440.767C674.353 440.744 674.391 440.728 674.421 440.705C684.999 433.951 697.537 430.733 709.524 433.517H709.532C709.84 433.586 710.142 433.656 710.451 433.734Z" fill="#5BB263"/>
<path d="M710.413 434.145C710.157 434.215 709.9 434.292 709.652 434.37C704.371 435.923 699.275 438.073 694.455 440.783C694.214 440.914 693.973 441.054 693.731 441.194C687.071 445.02 681.025 449.882 675.807 455.609C675.803 455.613 675.8 455.619 675.8 455.625C675.739 455.687 675.671 455.757 675.619 455.819C674.413 457.152 673.253 458.54 672.153 459.967C670.001 462.628 668.267 465.618 667.014 468.831C666.057 471.508 665.719 474.378 666.027 477.213C666.05 477.5 666.088 477.779 666.125 478.066C666.155 478.291 666.186 478.516 666.223 478.749C666.72 481.858 667.579 484.976 667.338 488.147C667.192 489.772 666.712 491.347 665.932 492.768C665.151 494.188 664.087 495.423 662.81 496.39C661.942 497.081 661.014 497.689 660.037 498.205C658.642 498.945 657.187 499.563 655.69 500.05H652.729C653.128 499.934 653.52 499.818 653.919 499.701C655.336 499.29 656.728 498.79 658.086 498.205C658.862 497.871 659.617 497.488 660.346 497.057C663.375 495.266 665.899 492.521 666.427 488.853C666.886 485.642 665.997 482.432 665.47 479.292C665.379 478.749 665.296 478.214 665.251 477.679C664.892 474.959 665.11 472.191 665.892 469.567C666.976 466.294 668.597 463.236 670.684 460.526C671.975 458.761 673.353 457.066 674.812 455.446C674.993 455.237 675.182 455.028 675.378 454.818C680.705 449.05 686.856 444.153 693.618 440.294H693.626C698.654 437.413 703.989 435.139 709.524 433.517H709.531C709.78 433.439 710.036 433.362 710.285 433.292C710.805 433.152 710.925 433.997 710.413 434.145Z" fill="white"/>
<path d="M675.08 455.741C673.26 453.763 672.182 451.185 672.039 448.465C671.896 445.745 672.697 443.062 674.299 440.894C674.625 440.457 675.3 440.957 674.974 441.395C673.479 443.411 672.733 445.91 672.872 448.443C673.01 450.975 674.023 453.373 675.728 455.204C676.098 455.602 675.448 456.137 675.08 455.741Z" fill="white"/>
<path d="M665.767 477.209C671.173 477.409 676.453 475.506 680.556 471.877C680.962 471.517 681.484 472.185 681.078 472.544C676.802 476.312 671.302 478.282 665.677 478.06C665.141 478.039 665.233 477.187 665.767 477.209Z" fill="white"/>
<defs>
<clipPath id="clip0_362_21">
<rect width="651" height="500" fill="white"/>
</clipPath>
</defs>
</svg>
